<?xml version="1.0" encoding="utf-8"?>
<!-- Generator: Adobe Illustrator 24.0.2, SVG Export Plug-In . SVG Version: 6.00 Build 0)  -->
<svg version="1.1" xmlns="http://www.w3.org/2000/svg" xmlns:xlink="http://www.w3.org/1999/xlink" x="0px" y="0px"
	 viewBox="0 0 1119 607.2" style="enable-background:new 0 0 1119 607.2;" xml:space="preserve">
<style type="text/css">
	.st0{fill:none;stroke:#FFFFFF;stroke-width:0.75;stroke-miterlimit:10;}
	.st1{fill:none;stroke:#FFFFFF;stroke-width:0.25;stroke-miterlimit:10;}
	.st2{fill:#FFFFFF;}
	.st3{opacity:0.37;}
</style>
<g id="Capa_1">
</g>
<g id="Capa_2">
	<g>
		<g>
			<path class="st0" d="M855,19c5.1,0.8,9.9,2.5,15,3.3c5.3,0.9,10.6,1.5,16,1.9c9.7,0.7,18.7,2.2,28,5.1c5.9,1.8,11.7,3.9,17.4,6.2
				c15.9,6.5,31.1,14.7,45.6,23.9c20.7,13.1,40,28.2,58.3,44.5c5.4,4.8,10.7,9.8,16,14.8c-0.7-0.6-3.9-0.6-4.8-0.8
				c-1.6-0.3-3.2-0.5-4.9-0.8c-3.1-0.6-6.2-1.4-9.3-2.1c-6.2-1.4-12.5-3-18.6-4.7c-12.4-3.4-24.6-7.2-36.6-11.7
				c-23.8-8.9-46.7-20.5-67.3-35.4c-4.2-3.1-8.3-6.2-12.3-9.6c-4-3.4-7.5-7.7-11.6-10.9C875.4,34.9,865.1,27.1,855,19z"/>
			<path class="st1" d="M1031.5,104.3c0,0-52.3-51.8-150.3-78.7"/>
			<path class="st1" d="M1032.3,108.1c-26.5-15.2-51.9-32.4-78.4-47.6c-23.6-13.5-48.3-25.7-74.6-33.1c-3.3-0.9-6.9-2.3-10.4-2.5"/>
			<path class="st1" d="M1038.2,111.8c-25.8-9.2-50.6-21-74-35.4c-6.7-4.1-12.7-9-19.4-13.2c-14.8-9.3-31.3-16.3-47-24
				c-6-2.9-12-5.9-18.1-8.7c-3.5-1.6-6.9-3.2-10.7-4.3"/>
			<path class="st1" d="M996.6,102.7c-21.2-10-42.5-20.2-61-34.5c-3.2-2.5-6.4-5.2-9.6-7.6c-3-2.3-6-4.4-9.2-6.4
				c-5.9-3.8-11.9-7.3-18.2-10.6c-5.8-3-12.1-6.5-18.4-8.3"/>
			<path class="st1" d="M962.2,91.1c0,0-40.9-32.2-74.6-49.9"/>
		</g>
		<g>
			<path class="st0" d="M929.8,135.2c4.9,1.4,9.5,3.7,14.4,5.2c5.1,1.6,10.4,2.8,15.6,3.9c9.6,1.9,18.3,4.6,27.1,8.6
				c5.6,2.5,11.1,5.3,16.5,8.4c15,8.4,29,18.5,42.2,29.4c18.9,15.6,36.1,33.1,52.2,51.5c4.8,5.5,9.4,11,14,16.7
				c-0.6-0.7-3.7-1.1-4.7-1.4c-1.6-0.5-3.2-0.9-4.7-1.4c-3-1-6-2.1-9-3.2c-6-2.2-12-4.5-17.9-7c-11.8-4.9-23.5-10.3-34.8-16.3
				c-22.5-11.9-43.8-26.2-62.3-43.6c-3.8-3.6-7.5-7.2-11-11.1c-3.5-3.9-6.5-8.6-10.2-12.2C948,153.6,938.8,144.5,929.8,135.2z"/>
			<path class="st1" d="M1094.1,242.1c0,0-45.3-58-139.2-97.1"/>
			<path class="st1" d="M1094.4,245.9c-24.4-18.5-47.4-38.7-71.8-57.1c-21.7-16.4-44.7-31.5-69.8-42.3c-3.2-1.4-6.6-3.2-10-3.8"/>
			<path class="st1" d="M1099.8,250.4c-24.4-12.4-47.6-27.2-68.9-44.4c-6.1-4.9-11.5-10.5-17.6-15.5c-13.5-11.1-29-20.1-43.6-29.7
				c-5.6-3.7-11.2-7.3-16.9-10.9c-3.3-2.1-6.5-4.1-10-5.7"/>
			<path class="st1" d="M1059.7,236.1c-19.7-12.6-39.6-25.4-56.1-42c-2.9-2.9-5.7-5.9-8.6-8.8c-2.7-2.6-5.4-5.1-8.3-7.5
				c-5.3-4.5-10.9-8.8-16.7-12.8c-5.4-3.7-11.2-7.9-17.2-10.6"/>
			<path class="st1" d="M1027,220.3c0,0-36.5-37.1-67.7-59"/>
		</g>
		<g>
			<path class="st0" d="M972.2,212c4.4,2.7,8.2,6.1,12.5,8.9c4.5,2.9,9.2,5.5,14,7.9c8.7,4.4,16.4,9.3,23.9,15.5
				c4.7,3.9,9.3,8.1,13.6,12.5c12.2,12.1,23,25.6,32.8,39.7c14,20.1,26,41.5,36.5,63.6c3.1,6.5,6.1,13.2,9,19.8
				c-0.4-0.8-3.3-2-4.1-2.6c-1.4-0.9-2.8-1.7-4.1-2.7c-2.7-1.8-5.2-3.7-7.8-5.5c-5.2-3.7-10.3-7.6-15.4-11.5
				c-10.1-7.9-19.9-16.2-29.2-25c-18.5-17.5-35.2-37-48.3-58.7c-2.7-4.4-5.3-9-7.6-13.6c-2.3-4.7-3.9-10-6.5-14.5
				C984.8,234.6,978.4,223.4,972.2,212z"/>
			<path class="st1" d="M1101.8,359c0,0-28.1-68-108.1-130.8"/>
			<path class="st1" d="M1101.1,362.8c-18.5-24.3-35.3-49.9-53.9-74.2c-16.5-21.6-34.6-42.4-56-59.4c-2.7-2.2-5.5-4.8-8.6-6.3"/>
			<path class="st1" d="M1105.1,368.5c-20.2-18.5-38.5-39-54.5-61.2c-4.6-6.4-8.3-13.2-12.8-19.6c-10.1-14.3-22.5-27.1-34-40.3
				c-4.4-5-8.8-10.1-13.4-15c-2.6-2.9-5.1-5.7-8.1-8.1"/>
			<path class="st1" d="M1070.3,344c-15.6-17.4-31.4-35.1-42.9-55.5c-2-3.6-3.9-7.2-5.9-10.8c-1.9-3.2-3.9-6.4-6-9.4
				c-3.9-5.8-8.2-11.4-12.6-16.8c-4.2-5.1-8.6-10.6-13.7-14.8"/>
			<path class="st1" d="M1043.1,320c0,0-25.2-45.5-49.5-75"/>
		</g>
		<g>
			<path class="st0" d="M1009.8,316.6c2.4,4.5,3.9,9.4,6.2,14c2.4,4.8,5.2,9.4,8.1,13.9c5.3,8.2,9.4,16.3,12.6,25.5
				c2.1,5.8,3.8,11.7,5.4,17.6c4.3,16.6,6.8,33.7,8.1,50.9c1.8,24.4,1.2,49-1,73.3c-0.6,7.2-1.4,14.4-2.3,21.6
				c0.1-0.9-1.8-3.5-2.3-4.3c-0.7-1.5-1.5-2.9-2.2-4.4c-1.4-2.9-2.6-5.8-3.9-8.7c-2.6-5.9-5-11.8-7.4-17.7
				c-4.7-11.9-8.9-24-12.4-36.4c-7-24.4-11.5-49.7-11.7-75.2c-0.1-5.2,0-10.4,0.4-15.6c0.4-5.2,1.7-10.6,1.8-15.8
				C1009.2,342.5,1009.3,329.6,1009.8,316.6z"/>
			<path class="st1" d="M1046.6,509.1c0,0,10.4-72.9-26.5-167.6"/>
			<path class="st1" d="M1044.1,512c-3.6-30.4-5-61-8.6-91.3c-3.2-27-8.3-54.1-18-79.6c-1.2-3.2-2.3-6.9-4.2-9.8"/>
			<path class="st1" d="M1044.6,519c-8-26.2-13.4-53.1-15.8-80.4c-0.7-7.8-0.4-15.6-1-23.4c-1.4-17.4-5.6-34.8-8.8-52
				c-1.2-6.6-2.5-13.2-3.9-19.7c-0.8-3.8-1.6-7.5-2.9-11.1"/>
			<path class="st1" d="M1027.1,480.2c-4.6-23-9.2-46.1-8.7-69.6c0.1-4.1,0.3-8.2,0.4-12.3c0-3.7-0.1-7.4-0.3-11.2
				c-0.4-7-1.2-14-2.4-20.9c-1.1-6.5-2-13.5-4.3-19.7"/>
			<path class="st1" d="M1015.9,445.7c0,0,1.4-52-4.5-89.7"/>
		</g>
		<g>
			<path class="st0" d="M971.6,217.3c0,5.1-1,10.2-1,15.3c-0.1,5.4,0.1,10.7,0.6,16.1c0.8,9.7,0.6,18.8-0.8,28.5
				c-0.9,6.1-2.1,12.1-3.5,18.1c-4,16.7-9.8,33-16.7,48.7c-9.8,22.4-21.9,43.8-35.2,64.3c-4,6.1-8,12.1-12.2,18c0.5-0.7,0-3.9,0-4.9
				c0-1.6,0-3.3,0.1-4.9c0.1-3.2,0.4-6.4,0.6-9.5c0.5-6.4,1.1-12.8,1.8-19.1c1.5-12.7,3.4-25.4,6.1-37.9
				c5.3-24.9,13.2-49.3,24.9-71.9c2.4-4.6,4.9-9.2,7.7-13.6c2.8-4.4,6.5-8.6,9-13.2C958.9,239.9,965.1,228.5,971.6,217.3z"/>
			<path class="st1" d="M913.8,404.6c0,0,43.4-59.5,55.2-160.5"/>
			<path class="st1" d="M910.2,406c11.1-28.5,24.2-56.2,35.2-84.7c9.8-25.4,18.1-51.6,21.5-78.7c0.4-3.4,1.2-7.2,0.9-10.7"/>
			<path class="st1" d="M907.4,412.4c5.3-26.9,13.1-53.2,23.8-78.4c3.1-7.2,7-14,10.1-21.1c7-16.1,11.4-33.4,16.6-50.1
				c2-6.4,4-12.8,5.8-19.2c1.1-3.7,2.1-7.3,2.7-11.2"/>
			<path class="st1" d="M910.1,369.9c6.7-22.4,13.5-45.1,25-65.5c2-3.6,4.1-7.1,6.1-10.7c1.8-3.3,3.4-6.6,4.9-10
				c2.9-6.4,5.5-12.9,7.7-19.5c2.1-6.2,4.6-12.9,5.5-19.5"/>
			<path class="st1" d="M916.4,334.2c0,0,25.7-45.3,38.1-81.3"/>
		</g>
		<g>
			<path class="st0" d="M894.7,81.6c0,5.1-1,10.2-1,15.3c-0.1,5.4,0.1,10.7,0.6,16.1c0.8,9.7,0.6,18.8-0.8,28.5
				c-0.9,6.1-2.1,12.1-3.5,18.1c-4,16.7-9.8,33-16.7,48.7c-9.8,22.4-21.9,43.8-35.2,64.3c-4,6.1-8,12.1-12.2,18c0.5-0.7,0-3.9,0-4.9
				c0-1.6,0-3.3,0.1-4.9c0.1-3.2,0.4-6.4,0.6-9.5c0.5-6.4,1.1-12.8,1.8-19.1c1.5-12.7,3.4-25.4,6.1-37.9
				c5.3-24.9,13.2-49.3,24.9-71.9c2.4-4.6,4.9-9.2,7.7-13.6c2.8-4.4,6.5-8.6,9-13.2C882.1,104.2,888.3,92.8,894.7,81.6z"/>
			<path class="st1" d="M836.9,268.9c0,0,43.4-59.5,55.2-160.5"/>
			<path class="st1" d="M833.4,270.2c11.1-28.5,24.2-56.2,35.2-84.7c9.8-25.4,18.1-51.6,21.5-78.7c0.4-3.4,1.2-7.2,0.9-10.7"/>
			<path class="st1" d="M830.5,276.7c5.3-26.9,13.1-53.2,23.8-78.4c3.1-7.2,7-14,10.1-21.1c7-16.1,11.4-33.4,16.6-50.1
				c2-6.4,4-12.8,5.8-19.2c1.1-3.7,2.1-7.3,2.7-11.2"/>
			<path class="st1" d="M833.3,234.2c6.7-22.4,13.5-45.1,25-65.5c2-3.6,4.1-7.1,6.1-10.7c1.8-3.3,3.4-6.6,4.9-10
				c2.9-6.4,5.5-12.9,7.7-19.5c2.1-6.2,4.6-12.9,5.5-19.5"/>
			<path class="st1" d="M839.6,198.4c0,0,25.7-45.3,38.1-81.3"/>
		</g>
		<g>
			<path class="st0" d="M853.1,18.7c0,5.1-1,10.2-1,15.3c-0.1,5.4,0.1,10.7,0.6,16.1c0.8,9.7,0.6,18.8-0.8,28.5
				c-0.9,6.1-2.1,12.1-3.5,18.1c-4,16.7-9.8,33-16.7,48.7c-9.8,22.4-21.9,43.8-35.2,64.3c-4,6.1-8,12.1-12.2,18c0.5-0.7,0-3.9,0-4.9
				c0-1.6,0-3.3,0.1-4.9c0.1-3.2,0.4-6.4,0.6-9.5c0.5-6.4,1.1-12.8,1.8-19.1c1.5-12.7,3.4-25.4,6.1-37.9
				c5.3-24.9,13.2-49.3,24.9-71.9c2.4-4.6,4.9-9.2,7.7-13.6c2.8-4.4,6.5-8.6,9-13.2C840.4,41.2,846.6,29.9,853.1,18.7z"/>
			<path class="st1" d="M795.3,206c0,0,43.4-59.5,55.2-160.5"/>
			<path class="st1" d="M791.7,207.3c11.1-28.5,24.2-56.2,35.2-84.7c9.8-25.4,18.1-51.6,21.5-78.7c0.4-3.4,1.2-7.2,0.9-10.7"/>
			<path class="st1" d="M788.9,213.8c5.3-26.9,13.1-53.2,23.8-78.4c3.1-7.2,7-14,10.1-21.1c7-16.1,11.4-33.4,16.6-50.1
				c2-6.4,4-12.8,5.8-19.2c1.1-3.7,2.1-7.3,2.7-11.2"/>
			<path class="st1" d="M791.6,171.3c6.7-22.4,13.5-45.1,25-65.5c2-3.6,4.1-7.1,6.1-10.7c1.8-3.3,3.4-6.6,4.9-10
				c2.9-6.4,5.5-12.9,7.7-19.5c2.1-6.2,4.6-12.9,5.5-19.5"/>
			<path class="st1" d="M797.9,135.5c0,0,25.7-45.3,38.1-81.3"/>
		</g>
		<g>
			<path class="st2" d="M842.4,2.4c8.9,12,17.4,24.3,25.9,36.5c8.4,12.3,16.7,24.7,24.9,37.2c8.2,12.5,16.1,25.1,23.9,37.8
				c7.8,12.7,15.5,25.5,22.9,38.5c7.4,13,14.6,26,21.5,39.3c1.8,3.3,3.4,6.6,5.1,10c1.7,3.3,3.4,6.6,5,10l4.9,10.1l4.7,10.2
				c6.1,13.6,11.9,27.4,16.9,41.5l3.6,10.6l3.2,10.7c0.9,3.6,1.8,7.2,2.7,10.9c0.8,3.7,1.4,7.3,2.1,11c-2.8-14.7-7.2-28.9-12.5-42.9
				c-5.2-14-11.1-27.7-17.4-41.2c-12.7-27-26.7-53.3-41.6-79.1c-14.8-25.9-30.4-51.3-46.4-76.5c-8-12.6-16.1-25.1-24.4-37.5
				C859.3,27,850.9,14.7,842.4,2.4z"/>
		</g>
	</g>
	<g>
		<g>
			<path class="st0" d="M273.6,493.5c-0.1-4.2,0.6-8.3,0.6-12.4c0-4.4-0.3-8.7-0.7-13.1c-0.8-7.9-0.8-15.3,0.2-23.2
				c0.6-5,1.5-9.9,2.6-14.8c3-13.7,7.5-27,12.9-39.9c7.7-18.4,17.1-36,27.7-52.9c3.1-5,6.4-9.9,9.7-14.8c-0.4,0.6,0,3.2,0,4
				c0,1.3,0,2.7,0,4c0,2.6-0.2,5.2-0.4,7.8c-0.3,5.2-0.7,10.4-1.2,15.6c-1,10.4-2.4,20.7-4.4,30.9c-3.9,20.3-10,40.3-19.2,58.9
				c-1.9,3.8-3.8,7.6-6,11.2c-2.2,3.7-5.2,7.1-7.1,10.8C283.6,475,278.7,484.3,273.6,493.5z"/>
			<path class="st1" d="M317.8,340.3c0,0-34.4,49-42.4,131.4"/>
			<path class="st1" d="M320.7,339.1c-8.6,23.4-18.8,46.1-27.4,69.4c-7.6,20.8-13.9,42.3-16.3,64.4c-0.3,2.8-0.9,5.9-0.6,8.7"/>
			<path class="st1" d="M322.9,333.8c-3.9,21.9-9.9,43.5-18.2,64.2c-2.4,5.9-5.5,11.5-7.9,17.3c-5.4,13.2-8.8,27.3-12.8,41
				c-1.5,5.2-3,10.5-4.4,15.7c-0.8,3.1-1.6,6-2,9.1"/>
			<path class="st1" d="M321.3,368.5c-5.1,18.3-10.3,36.9-19.3,53.7c-1.6,2.9-3.3,5.8-4.8,8.8c-1.4,2.7-2.7,5.4-3.9,8.2
				c-2.3,5.2-4.2,10.6-6,16c-1.6,5.1-3.5,10.6-4.2,15.9"/>
			<path class="st1" d="M316.7,397.6c0,0-20.2,37.2-29.8,66.7"/>
		</g>
		<g>
			<path class="st0" d="M277.3,493.5c3.2-4,7.1-7.4,10.3-11.3c3.4-4.1,6.6-8.5,9.6-12.9c5.4-8.1,11.2-15.1,18.3-21.8
				c4.5-4.2,9.2-8.2,14-12c13.5-10.6,28.2-19.7,43.4-27.7c21.6-11.4,44.4-20.7,67.6-28.4c6.9-2.3,13.8-4.4,20.8-6.5
				c-0.9,0.3-2.4,3-3.1,3.8c-1,1.3-2.1,2.5-3.1,3.8c-2.1,2.4-4.3,4.7-6.5,7.1c-4.4,4.7-8.8,9.3-13.3,13.8
				c-9.1,9-18.5,17.7-28.4,25.9c-19.6,16.2-41,30.3-64.2,40.8c-4.7,2.1-9.6,4.1-14.5,5.9c-5,1.7-10.4,2.6-15.2,4.7
				C301.3,483.7,289.3,488.8,277.3,493.5z"/>
			<path class="st1" d="M439.1,382.9c0,0-71,19.5-143.1,91.2"/>
			<path class="st1" d="M442.8,384.1c-26.4,15.4-53.9,28.9-80.3,44.3c-23.5,13.7-46.3,29.1-65.8,48.2c-2.5,2.4-5.4,4.9-7.4,7.8"/>
			<path class="st1" d="M449,380.8c-20.8,17.8-43.4,33.5-67.5,46.5c-6.9,3.7-14.1,6.6-21.1,10.3c-15.4,8.2-29.7,19-44.2,28.8
				c-5.5,3.8-11.1,7.5-16.5,11.4c-3.2,2.3-6.2,4.4-9.1,7.1"/>
			<path class="st1" d="M420.4,412.4c-19.2,13.4-38.6,26.8-60.3,35.7c-3.8,1.6-7.6,3-11.4,4.6c-3.4,1.5-6.8,3.1-10.1,4.8
				c-6.2,3.2-12.3,6.7-18.2,10.5c-5.5,3.6-11.6,7.3-16.4,11.8"/>
			<path class="st1" d="M393.2,436.4c0,0-48.3,19.5-80.5,39.9"/>
		</g>
		<g>
			<path class="st0" d="M198.7,569.5c4-3.3,8.4-5.8,12.4-9c4.2-3.4,8.2-7,12-10.7c7-6.8,14.1-12.5,22.4-17.6
				c5.2-3.2,10.7-6.2,16.2-8.9c15.4-7.6,31.6-13.6,48.1-18.3c23.5-6.8,47.7-11.3,72-14.1c7.2-0.9,14.4-1.6,21.7-2.1
				c-0.9,0.1-3,2.5-3.8,3.1c-1.3,1-2.6,2.1-3.8,3.1c-2.5,2-5.2,3.8-7.7,5.6c-5.2,3.7-10.5,7.3-15.9,10.9c-10.7,7-21.7,13.6-33,19.6
				c-22.5,11.9-46.3,21.4-71.1,26.9c-5.1,1.1-10.2,2.1-15.3,2.8c-5.2,0.7-10.8,0.5-15.8,1.5C224.1,564.8,211.5,567.3,198.7,569.5z"
				/>
			<path class="st1" d="M379.5,493.9c0,0-73.4,4.8-158.6,60.4"/>
			<path class="st1" d="M382.9,495.8c-29,9.8-58.6,17.4-87.6,27.2c-25.8,8.7-51.2,19.2-74.2,33.9c-2.9,1.9-6.3,3.7-8.8,6.1"/>
			<path class="st1" d="M389.6,493.8c-24,13.2-49.3,24-75.5,32c-7.5,2.3-15.2,3.6-22.7,5.8c-16.8,4.9-32.9,12.6-49.1,19.3
				c-6.2,2.6-12.4,5.1-18.5,7.8c-3.6,1.6-7,3.1-10.3,5.1"/>
			<path class="st1" d="M355.2,519c-21.5,9.2-43.3,18.5-66.3,22.8c-4,0.8-8.1,1.4-12.1,2.2c-3.7,0.7-7.3,1.6-10.9,2.6
				c-6.7,1.9-13.4,4.1-19.9,6.6c-6.1,2.4-12.8,4.8-18.4,8.3"/>
			<path class="st1" d="M323.8,537c0,0-51.2,9.3-86.9,22.8"/>
		</g>
		<g>
			<path class="st0" d="M197.6,569.5c-0.2-5.1,0.4-10.2,0.3-15.3c-0.2-5.4-0.7-10.7-1.4-16c-1.3-9.7-1.6-18.8-0.6-28.5
				c0.6-6.1,1.5-12.2,2.6-18.3c3.2-16.9,8.2-33.4,14.3-49.5c8.7-22.9,19.7-44.9,32-66c3.6-6.3,7.4-12.5,11.3-18.6
				c-0.5,0.8,0.2,3.9,0.2,4.9c0,1.6,0.1,3.3,0.1,4.9c0,3.2-0.1,6.4-0.2,9.6c-0.2,6.4-0.4,12.8-0.9,19.2c-0.8,12.8-2.2,25.5-4.2,38.2
				c-4,25.1-10.7,49.9-21.2,73c-2.2,4.7-4.4,9.4-7,14c-2.6,4.6-6.1,8.9-8.3,13.6C209.1,546.4,203.5,558,197.6,569.5z"/>
			<path class="st1" d="M245.9,379.6c0,0-40.3,61.6-47,163"/>
			<path class="st1" d="M249.4,378c-9.6,29-21.3,57.3-30.9,86.4c-8.5,25.9-15.5,52.5-17.5,79.7c-0.3,3.5-0.9,7.3-0.4,10.7"/>
			<path class="st1" d="M251.9,371.5c-3.9,27.1-10.4,53.8-19.8,79.5c-2.7,7.4-6.3,14.3-9,21.6c-6.1,16.4-9.7,33.9-14.1,50.8
				c-1.7,6.5-3.3,13-4.9,19.5c-0.9,3.8-1.8,7.4-2.1,11.3"/>
			<path class="st1" d="M251.3,414.1c-5.6,22.7-11.2,45.7-21.6,66.7c-1.8,3.7-3.8,7.3-5.6,11c-1.6,3.4-3.1,6.8-4.4,10.3
				c-2.6,6.5-4.8,13.2-6.7,19.9c-1.8,6.3-3.9,13.1-4.5,19.7"/>
			<path class="st1" d="M246.8,450.1c0,0-23.3,46.5-34,83.1"/>
		</g>
		<g>
			<path class="st2" d="M184.8,578.6c10.3-8.3,20.3-16.9,30.2-25.7c9.8-8.8,19.4-17.8,28.6-27.2c9.3-9.3,18.3-18.9,27-28.8
				c8.8-9.8,17.1-20.1,25.5-30.3c-7.1,11.2-14.7,22.1-23.1,32.3c-4.1,5.2-8.6,10.1-12.9,15.2c-2.2,2.5-4.5,4.8-6.8,7.3l-3.4,3.6
				l-3.5,3.5c-2.4,2.3-4.7,4.7-7.1,7l-7.3,6.8c-5,4.4-9.9,8.8-15.1,13C206.8,563.7,196.1,571.7,184.8,578.6z"/>
		</g>
	</g>
	<g>
		<g>
			<path class="st0" d="M784.6,470c-4.1-0.8-8-2.2-12.1-3c-4.3-0.9-8.6-1.4-13-1.9c-7.9-0.8-15.2-2.2-22.7-4.7
				c-4.7-1.6-9.4-3.4-14-5.4c-12.8-5.6-25-12.6-36.6-20.4c-16.5-11.1-31.9-23.9-46.4-37.5c-4.3-4-8.5-8.2-12.6-12.4
				c0.5,0.5,3.1,0.6,3.9,0.7c1.3,0.3,2.6,0.5,3.9,0.8c2.5,0.6,5,1.2,7.6,1.9c5,1.3,10.1,2.7,15,4.2c10,3,19.8,6.4,29.5,10.4
				c19.2,7.8,37.6,17.7,54,30.3c3.4,2.6,6.7,5.2,9.8,8.1c3.2,2.9,5.9,6.5,9.2,9.1C768.4,456.5,776.6,463.1,784.6,470z"/>
			<path class="st1" d="M643.1,396.6c0,0,41.4,43.3,120.5,67.4"/>
			<path class="st1" d="M642.5,393.6c21.2,13,41.5,27.5,62.7,40.4c18.9,11.5,38.7,21.9,59.9,28.6c2.7,0.8,5.6,2,8.4,2.3"/>
			<path class="st1" d="M637.7,390.4c20.8,8.1,40.7,18.2,59.4,30.4c5.3,3.5,10.2,7.6,15.5,11.1c11.8,7.9,25.1,14,37.7,20.5
				c4.8,2.5,9.7,5,14.6,7.4c2.8,1.4,5.6,2.8,8.6,3.8"/>
			<path class="st1" d="M671.4,398.7c17,8.6,34.1,17.3,48.8,29.4c2.6,2.1,5.1,4.3,7.7,6.4c2.4,1.9,4.8,3.7,7.3,5.4
				c4.7,3.2,9.5,6.2,14.5,9c4.7,2.6,9.7,5.5,14.8,7.2"/>
			<path class="st1" d="M699.1,408.9c0,0,32.5,27.1,59.6,42.3"/>
		</g>
		<g>
			<path class="st0" d="M785.4,466.3c-3.3-3.9-5.8-8.4-9.1-12.3c-3.4-4.2-7-8.1-10.8-11.9c-6.9-6.9-12.6-14-17.8-22.2
				c-3.3-5.2-6.2-10.6-9-16.1c-7.7-15.4-13.8-31.5-18.6-48c-7-23.5-11.6-47.6-14.6-71.9c-0.9-7.2-1.7-14.4-2.3-21.6
				c0.1,0.9,2.5,3,3.1,3.7c1,1.3,2.1,2.5,3.1,3.8c2,2.5,3.8,5.1,5.7,7.7c3.7,5.2,7.4,10.5,11,15.8c7.1,10.7,13.8,21.6,19.8,32.9
				c12,22.4,21.7,46.1,27.4,71c1.2,5.1,2.2,10.2,2.9,15.3c0.7,5.2,0.6,10.8,1.6,15.8C780.5,441,783.1,453.6,785.4,466.3z"/>
			<path class="st1" d="M708.7,286c0,0,5.3,73.4,61.4,158.2"/>
			<path class="st1" d="M710.5,282.7c9.9,28.9,17.8,58.5,27.8,87.4c8.9,25.7,19.5,51.1,34.4,74c1.9,2.9,3.7,6.3,6.2,8.7"/>
			<path class="st1" d="M708.5,275.9c13.3,23.9,24.3,49.1,32.4,75.3c2.3,7.5,3.7,15.2,5.9,22.7c5,16.8,12.8,32.9,19.6,49
				c2.6,6.2,5.2,12.3,8,18.5c1.6,3.5,3.1,7,5.2,10.3"/>
			<path class="st1" d="M733.9,310.1c9.3,21.5,18.7,43.2,23.2,66.1c0.8,4,1.4,8.1,2.2,12.1c0.8,3.6,1.7,7.3,2.7,10.8
				c1.9,6.7,4.2,13.4,6.7,19.9c2.4,6.1,4.8,12.8,8.4,18.4"/>
			<path class="st1" d="M752.1,341.5c0,0,9.6,51.1,23.3,86.7"/>
		</g>
		<g>
			<path class="st0" d="M844.5,558.3c-2.4-4.5-4-9.4-6.4-13.9c-2.5-4.8-5.2-9.4-8.2-13.9c-5.4-8.2-9.5-16.2-12.9-25.4
				c-2.1-5.8-4-11.7-5.6-17.6c-4.5-16.6-7.1-33.7-8.6-50.8c-2.1-24.4-1.7-49,0.2-73.3c0.6-7.2,1.3-14.4,2.1-21.7
				c-0.1,0.9,1.9,3.4,2.3,4.3c0.8,1.5,1.5,2.9,2.3,4.4c1.4,2.9,2.7,5.8,4,8.7c2.6,5.8,5.1,11.7,7.5,17.7c4.8,11.9,9.1,24,12.8,36.2
				c7.3,24.4,12,49.6,12.5,75c0.1,5.2,0.1,10.4-0.2,15.6c-0.3,5.2-1.6,10.6-1.6,15.8C844.9,532.5,844.9,545.4,844.5,558.3z"/>
			<path class="st1" d="M805.8,366.2c0,0-9.7,73,28.2,167.3"/>
			<path class="st1" d="M808.3,363.3c3.9,30.3,5.6,60.9,9.5,91.2c3.5,27,8.8,54,18.7,79.4c1.3,3.2,2.4,6.9,4.3,9.8"/>
			<path class="st1" d="M807.7,356.3c8.2,26.1,13.9,53,16.6,80.3c0.8,7.8,0.5,15.6,1.2,23.4c1.6,17.4,5.9,34.8,9.3,51.9
				c1.3,6.6,2.6,13.1,4.1,19.7c0.8,3.8,1.6,7.5,3,11.1"/>
			<path class="st1" d="M825.7,394.9c4.8,22.9,9.6,46.1,9.4,69.5c0,4.1-0.3,8.2-0.3,12.3c0,3.7,0.2,7.4,0.4,11.2
				c0.5,7,1.4,13.9,2.6,20.8c1.1,6.5,2.2,13.5,4.5,19.7"/>
			<path class="st1" d="M837.2,429.3c0,0-0.9,52,5.4,89.6"/>
		</g>
		<g>
			<path class="st0" d="M844.3,559.4c-5.1-0.8-9.9-2.4-15-3.3c-5.3-0.9-10.6-1.4-16-1.8c-9.7-0.6-18.7-2.2-28-4.9
				c-5.9-1.8-11.7-3.8-17.4-6.1c-15.9-6.4-31.2-14.6-45.7-23.7c-20.7-13-40.1-28.1-58.5-44.3c-5.4-4.8-10.8-9.7-16-14.7
				c0.7,0.6,3.9,0.6,4.8,0.7c1.6,0.3,3.2,0.5,4.9,0.8c3.1,0.6,6.2,1.3,9.4,2c6.2,1.4,12.5,2.9,18.7,4.6c12.4,3.3,24.6,7.1,36.6,11.6
				c23.8,8.8,46.8,20.3,67.5,35.1c4.2,3,8.4,6.2,12.3,9.6c4,3.4,7.5,7.7,11.7,10.8C823.9,543.6,834.2,551.4,844.3,559.4z"/>
			<path class="st1" d="M667.5,474.8c0,0,52.5,51.6,150.7,78.1"/>
			<path class="st1" d="M666.7,471.1c26.6,15.1,52,32.1,78.6,47.2c23.7,13.4,48.4,25.4,74.7,32.8c3.3,0.9,6.9,2.3,10.4,2.5"/>
			<path class="st1" d="M660.7,467.4c25.8,9.1,50.7,20.8,74.1,35c6.7,4.1,12.8,8.9,19.4,13.1c14.9,9.2,31.3,16.2,47.1,23.8
				c6,2.9,12.1,5.8,18.2,8.6c3.5,1.6,6.9,3.2,10.7,4.3"/>
			<path class="st1" d="M702.4,476.3c21.2,9.9,42.6,20,61.1,34.3c3.2,2.5,6.4,5.1,9.7,7.6c3,2.2,6.1,4.3,9.2,6.4
				c5.9,3.8,12,7.3,18.2,10.5c5.9,3,12.1,6.4,18.4,8.3"/>
			<path class="st1" d="M736.8,487.7c0,0,41,32,74.9,49.6"/>
		</g>
		<g>
			<path class="st2" d="M850.7,573.7c-6.1-11.8-12.5-23.3-19.3-34.6c-6.7-11.3-13.7-22.5-21.1-33.4c-7.3-11-14.9-21.7-22.9-32.2
				c-7.9-10.6-16.3-20.7-24.7-30.9c9.6,9.1,18.8,18.7,27.2,29c4.3,5,8.3,10.4,12.3,15.6c2,2.6,3.9,5.4,5.8,8.1l2.9,4.1l2.8,4.1
				c1.8,2.8,3.7,5.5,5.4,8.3l5.3,8.4c3.3,5.7,6.7,11.4,9.8,17.3C840.4,549.3,846.1,561.3,850.7,573.7z"/>
		</g>
	</g>
	<g>
		<g>
			<path class="st0" d="M107.7,261.6c1.1-4,2.8-7.8,3.9-11.8c1.2-4.2,2.1-8.5,2.8-12.8c1.3-7.8,3.3-15,6.4-22.3
				c1.9-4.6,4.1-9.1,6.4-13.6c6.6-12.4,14.4-24,23.1-35c12.3-15.7,26.1-30.1,40.8-43.5c4.4-4,8.8-7.9,13.3-11.7
				c-0.6,0.5-0.8,3.1-1,3.8c-0.4,1.3-0.7,2.6-1.1,3.9c-0.7,2.5-1.6,4.9-2.4,7.4c-1.7,4.9-3.4,9.8-5.3,14.7
				c-3.7,9.7-7.9,19.3-12.5,28.7c-9.2,18.5-20.4,36.2-34.2,51.6c-2.8,3.2-5.7,6.2-8.8,9.1c-3.1,2.9-6.9,5.4-9.7,8.5
				C122.2,246.5,115,254.1,107.7,261.6z"/>
			<path class="st1" d="M191.2,125.8c0,0-46.2,38.1-76,115.2"/>
			<path class="st1" d="M194.3,125.5c-14.5,20.2-30.4,39.4-44.9,59.6c-12.9,18-24.7,37-32.9,57.7c-1,2.6-2.4,5.4-2.9,8.2"/>
			<path class="st1" d="M197.8,121c-9.6,20.1-21.1,39.3-34.7,57c-3.9,5.1-8.3,9.6-12.2,14.6c-8.7,11.2-15.8,24-23.3,36.1
				c-2.9,4.6-5.7,9.3-8.5,14c-1.6,2.7-3.2,5.3-4.4,8.3"/>
			<path class="st1" d="M187.1,153.9c-9.8,16.3-19.8,32.8-32.9,46.5c-2.3,2.4-4.7,4.7-7,7.2c-2.1,2.2-4,4.5-5.9,6.9
				c-3.6,4.4-6.9,9.1-10,13.8c-2.9,4.5-6.2,9.2-8.3,14.2"/>
			<path class="st1" d="M174.8,180.8c0,0-29.4,30.5-46.5,56.3"/>
		</g>
		<g>
			<path class="st0" d="M111.2,262.6c4.2-3,8.8-5.2,13-8.1c4.4-3.1,8.6-6.4,12.7-9.9c7.4-6.4,14.9-11.6,23.5-16.1
				c5.4-2.9,11-5.4,16.7-7.8c15.9-6.6,32.5-11.4,49.2-15.1c23.9-5.2,48.3-8,72.7-9.3c7.2-0.4,14.5-0.6,21.7-0.7
				c-0.9,0-3.2,2.3-4,2.8c-1.3,0.9-2.7,1.9-4,2.8c-2.6,1.8-5.4,3.4-8.1,5.1c-5.5,3.4-11,6.6-16.5,9.8c-11.2,6.3-22.6,12.1-34.3,17.4
				c-23.2,10.4-47.6,18.3-72.8,22.1c-5.1,0.8-10.3,1.4-15.5,1.8c-5.2,0.3-10.8-0.2-15.9,0.5C136.9,259.6,124.1,261.3,111.2,262.6z"
				/>
			<path class="st1" d="M296.7,199.4c0,0-73.6-0.1-162.3,49.6"/>
			<path class="st1" d="M299.9,201.5c-29.6,7.8-59.7,13.4-89.2,21.3c-26.3,7-52.4,15.7-76.3,28.9c-3,1.7-6.5,3.2-9.2,5.5"/>
			<path class="st1" d="M306.8,199.9c-24.8,11.5-50.8,20.6-77.5,26.8c-7.6,1.8-15.4,2.6-23,4.3c-17.1,3.8-33.7,10.4-50.3,16
				c-6.3,2.1-12.7,4.3-19,6.6c-3.7,1.3-7.2,2.6-10.6,4.4"/>
			<path class="st1" d="M270.8,222.7c-22.1,7.7-44.4,15.5-67.7,18.3c-4.1,0.5-8.2,0.8-12.2,1.3c-3.7,0.5-7.4,1.1-11,1.9
				c-6.9,1.4-13.6,3.2-20.3,5.2c-6.3,2-13.1,3.9-19,7"/>
			<path class="st1" d="M238.1,238.6c0,0-51.7,5.8-88.2,16.9"/>
		</g>
		<g>
			<path class="st0" d="M15.2,314.9c4.7-2.1,9.7-3.3,14.4-5.3c4.9-2.1,9.7-4.5,14.4-7.1c8.5-4.7,16.9-8.3,26.3-11
				c5.9-1.7,11.9-3.1,18-4.3c16.9-3.2,34.1-4.6,51.3-4.8c24.5-0.3,48.9,1.9,73.1,5.6c7.2,1.1,14.3,2.3,21.4,3.7
				c-0.9-0.2-3.6,1.6-4.5,2c-1.5,0.6-3,1.3-4.5,1.9c-2.9,1.2-6,2.3-9,3.3c-6,2.2-12.1,4.3-18.2,6.2c-12.2,3.9-24.6,7.3-37.1,10.1
				c-24.8,5.5-50.3,8.3-75.8,6.9c-5.2-0.3-10.4-0.7-15.5-1.4c-5.2-0.7-10.5-2.4-15.7-2.8C40.9,317.1,28,316.2,15.2,314.9z"/>
			<path class="st1" d="M209.6,290.4c0,0-72-15-168.9,15.8"/>
			<path class="st1" d="M212.3,293.1c-30.5,1.7-61.2,1.1-91.7,2.8c-27.2,1.5-54.5,4.8-80.6,12.9c-3.3,1-7.1,1.8-10.1,3.6"/>
			<path class="st1" d="M219.4,293c-26.7,6.3-53.9,10-81.3,10.6c-7.8,0.2-15.6-0.6-23.4-0.5c-17.5,0.3-35.1,3.4-52.5,5.5
				c-6.7,0.8-13.3,1.6-19.9,2.6c-3.8,0.6-7.6,1.1-11.3,2.2"/>
			<path class="st1" d="M179.5,308c-23.2,3.1-46.6,6.2-70,4.2c-4.1-0.3-8.2-0.9-12.2-1.2c-3.7-0.3-7.4-0.4-11.2-0.4
				c-7,0-14,0.3-21,1c-6.5,0.7-13.6,1.2-20,3"/>
			<path class="st1" d="M144.3,317c0,0-51.8-4.7-89.8-1.2"/>
		</g>
		<g>
			<path class="st0" d="M14.1,314.6c1.1-5,3.1-9.7,4.4-14.7c1.3-5.2,2.2-10.5,3-15.8c1.3-9.7,3.5-18.5,7-27.6
				c2.2-5.7,4.7-11.4,7.4-16.9c7.6-15.4,16.8-30,27-43.9c14.5-19.7,30.9-38,48.4-55.1c5.2-5.1,10.5-10,15.9-14.9
				c-0.7,0.6-0.9,3.8-1.1,4.8c-0.4,1.6-0.8,3.2-1.2,4.8c-0.8,3.1-1.8,6.1-2.7,9.2c-1.9,6.1-3.9,12.2-6,18.3
				c-4.2,12.1-8.9,24-14.2,35.7c-10.6,23.1-23.6,45.2-40,64.7c-3.3,4-6.8,7.9-10.5,11.6c-3.7,3.7-8.2,6.9-11.6,10.9
				C31.4,295.4,22.9,305.1,14.1,314.6z"/>
			<path class="st1" d="M111.4,144.5c0,0-55.3,48.6-88.9,144.5"/>
			<path class="st1" d="M115.2,143.9c-17,25.4-35.9,49.5-52.9,74.9c-15.1,22.6-28.9,46.4-38.2,72.1c-1.2,3.3-2.8,6.8-3.2,10.2"/>
			<path class="st1" d="M119.4,138.3c-11,25.1-24.4,49.1-40.4,71.3c-4.6,6.4-9.9,12.1-14.5,18.4c-10.3,14.1-18.4,30.1-27.2,45.2
				c-3.3,5.8-6.7,11.6-9.9,17.5c-1.9,3.4-3.7,6.7-5.1,10.3"/>
			<path class="st1" d="M107.4,179.2c-11.5,20.4-23.1,41-38.7,58.5c-2.7,3.1-5.6,6-8.3,9.1c-2.5,2.8-4.8,5.7-7,8.7
				c-4.2,5.6-8.2,11.4-11.8,17.4c-3.4,5.6-7.3,11.6-9.6,17.8"/>
			<path class="st1" d="M93.4,212.6c0,0-34.9,38.6-55,71"/>
		</g>
		<g>
			<path class="st2" d="M-0.7,319.9c12.2-5.2,24.1-10.8,35.9-16.7c11.8-5.9,23.5-12,34.9-18.6c11.5-6.5,22.7-13.3,33.8-20.5
				c11.1-7.1,21.8-14.8,32.7-22.4c-9.8,8.9-20,17.4-30.9,25c-5.3,4-11,7.5-16.5,11.2c-2.8,1.8-5.7,3.5-8.5,5.2l-4.3,2.6l-4.3,2.5
				c-2.9,1.6-5.8,3.3-8.7,4.8l-8.8,4.6c-6,2.9-11.9,5.9-18,8.5C24.5,311.4,12.1,316.3-0.7,319.9z"/>
		</g>
	</g>
	<g>
		<g>
			<path class="st0" d="M116.9,110.7c0.5-4.1,1.7-8.1,2.2-12.3c0.6-4.3,0.9-8.7,1-13.1c0.2-7.9,1.2-15.3,3.2-22.9
				c1.3-4.8,2.8-9.6,4.5-14.3c4.7-13.2,10.9-25.8,17.9-37.9c10-17.2,21.6-33.5,34.3-48.8c3.7-4.6,7.6-9,11.5-13.5
				c-0.5,0.6-0.4,3.2-0.5,3.9c-0.2,1.3-0.3,2.7-0.5,4c-0.4,2.6-0.9,5.1-1.4,7.7c-1,5.1-2,10.2-3.2,15.3C183.6-11,180.9-1,177.6,8.9
				c-6.5,19.6-15.1,38.7-26.6,55.9c-2.3,3.5-4.8,7-7.4,10.3c-2.7,3.3-6,6.3-8.4,9.8C129.2,93.6,123.2,102.2,116.9,110.7z"/>
			<path class="st1" d="M180.5-35.6c0,0-40.4,44.2-59.1,124.8"/>
			<path class="st1" d="M183.5-36.3C172-14.3,158.9,6.9,147.4,29c-10.2,19.6-19.3,40.1-24.5,61.7c-0.7,2.7-1.6,5.7-1.7,8.5"/>
			<path class="st1" d="M186.4-41.3C179.7-20,171,0.6,160.1,20c-3.1,5.6-6.9,10.7-10.1,16.2c-7.1,12.4-12.2,26-17.9,39
				c-2.2,5-4.4,10-6.4,15c-1.2,2.9-2.4,5.7-3.2,8.8"/>
			<path class="st1" d="M180.3-7.1c-7.5,17.5-15,35.2-26.1,50.7c-1.9,2.7-4,5.3-5.9,8.1c-1.7,2.5-3.4,5-4.9,7.7
				c-2.9,4.9-5.6,9.9-8,15.1c-2.3,4.9-4.9,10-6.2,15.2"/>
			<path class="st1" d="M172,21.2c0,0-24.8,34.3-38.2,62.3"/>
		</g>
		<g>
			<path class="st0" d="M120.6,111.1c3.7-3.5,8-6.4,11.7-9.9c3.9-3.7,7.6-7.6,11.2-11.6c6.4-7.3,13.1-13.5,21-19.2
				c5-3.6,10.2-6.9,15.5-10.1c14.8-8.7,30.5-15.9,46.6-21.8c22.9-8.5,46.7-14.7,70.7-19.4c7.1-1.4,14.3-2.6,21.4-3.7
				c-0.9,0.1-2.8,2.7-3.5,3.4c-1.2,1.1-2.4,2.3-3.6,3.4c-2.4,2.1-4.9,4.1-7.3,6.2c-4.9,4.1-9.9,8.1-15,12
				c-10.2,7.8-20.6,15.2-31.5,22c-21.5,13.5-44.6,24.8-69,32.1c-5,1.5-10,2.9-15.1,3.9c-5.1,1.1-10.7,1.3-15.7,2.7
				C145.6,104.6,133.1,108,120.6,111.1z"/>
			<path class="st1" d="M295.3,22.4c0,0-72.9,10.2-153.7,72"/>
			<path class="st1" d="M298.8,24.1c-28.2,11.9-57.2,21.7-85.4,33.6c-25.1,10.6-49.7,22.9-71.5,39.3c-2.8,2.1-6,4.1-8.3,6.8"/>
			<path class="st1" d="M305.4,21.6c-23,14.9-47.4,27.6-72.9,37.4c-7.3,2.8-14.9,4.7-22.2,7.5c-16.4,6.2-31.9,15-47.5,22.9
				c-6,3-12,6-17.9,9.2c-3.4,1.8-6.8,3.6-9.9,5.8"/>
			<path class="st1" d="M272.9,49.2c-20.8,10.8-41.8,21.6-64.4,27.6c-4,1.1-8,1.9-11.9,3c-3.6,1-7.1,2.2-10.6,3.4
				c-6.6,2.4-13.1,5-19.4,8.1c-5.9,2.8-12.5,5.7-17.8,9.6"/>
			<path class="st1" d="M242.8,69.5c0,0-50.4,13.1-84.9,29.2"/>
		</g>
		<g>
			<path class="st0" d="M32.8,176.4c4.3-2.7,9.1-4.6,13.5-7.3c4.6-2.8,9-5.9,13.3-9.1c7.8-5.9,15.6-10.6,24.4-14.6
				c5.6-2.5,11.4-4.7,17.2-6.7c16.3-5.6,33.1-9.4,50.1-12c24.2-3.7,48.7-5,73.2-4.7c7.3,0.1,14.5,0.3,21.7,0.7
				c-0.9,0-3.3,2.1-4.1,2.6c-1.4,0.8-2.8,1.7-4.2,2.6c-2.7,1.6-5.6,3.1-8.4,4.6c-5.7,3-11.4,5.9-17.1,8.7
				c-11.5,5.6-23.3,10.7-35.3,15.2c-23.8,8.9-48.7,15.3-74,17.5c-5.2,0.5-10.4,0.8-15.6,0.8c-5.3,0-10.7-0.9-15.9-0.5
				C58.6,175,45.7,175.8,32.8,176.4z"/>
			<path class="st1" d="M221.9,124.8c0,0-73.4-4.7-165,39.4"/>
			<path class="st1" d="M224.9,127.1c-30,5.9-60.4,9.7-90.4,15.7c-26.7,5.3-53.3,12.4-78,24.1c-3.1,1.5-6.7,2.8-9.5,4.9"/>
			<path class="st1" d="M231.9,126c-25.5,10-52,17.4-79,21.9c-7.7,1.3-15.5,1.6-23.3,2.8c-17.3,2.7-34.3,8.3-51.2,12.8
				c-6.5,1.7-12.9,3.5-19.4,5.4c-3.7,1.1-7.3,2.1-10.9,3.7"/>
			<path class="st1" d="M194.5,146.5c-22.5,6.3-45.3,12.7-68.7,14c-4.1,0.2-8.2,0.3-12.3,0.6c-3.7,0.3-7.4,0.7-11.1,1.2
				c-6.9,1-13.8,2.3-20.6,4c-6.4,1.6-13.4,3.1-19.4,5.8"/>
			<path class="st1" d="M161,160.3c0,0-52,2.6-89.1,11.4"/>
		</g>
		<g>
			<path class="st0" d="M31.7,176.2c0.4-5.1,1.8-10.1,2.3-15.2c0.5-5.3,0.7-10.7,0.7-16.1c0-9.8,0.9-18.8,3-28.3
				c1.4-6,3-11.9,4.9-17.8C48,82.6,55.1,66.8,63.2,51.7C74.8,30.1,88.5,9.8,103.4-9.6c4.4-5.7,9-11.4,13.6-17
				c-0.6,0.7-0.3,3.9-0.4,4.9c-0.2,1.6-0.3,3.3-0.5,4.9c-0.4,3.2-0.9,6.3-1.4,9.5c-1,6.3-2.1,12.6-3.3,18.9
				c-2.5,12.6-5.4,25-9.1,37.3c-7.2,24.4-17,48.1-30.5,69.7c-2.7,4.4-5.6,8.8-8.7,12.9c-3.1,4.2-7.2,8-10,12.4
				C46.1,154.8,39,165.6,31.7,176.2z"/>
			<path class="st1" d="M104.1-5.9c0,0-47.9,55.8-67.7,155.6"/>
			<path class="st1" d="M107.8-6.9C94.5,20.6,79.3,47.2,66,74.7c-11.8,24.5-22.1,50-27.7,76.8c-0.7,3.4-1.8,7.1-1.8,10.6"/>
			<path class="st1" d="M111.1-13.1c-7.4,26.4-17.3,52-29.9,76.3c-3.6,7-8.1,13.4-11.7,20.3c-8.2,15.5-14,32.4-20.5,48.6
				c-2.5,6.2-5,12.4-7.3,18.7c-1.4,3.6-2.7,7.1-3.6,10.9"/>
			<path class="st1" d="M105.1,29C96.6,50.9,88,72.9,75,92.4c-2.3,3.4-4.7,6.7-6.9,10.2c-2,3.1-3.9,6.3-5.7,9.6
				c-3.4,6.1-6.5,12.4-9.2,18.9c-2.6,6-5.6,12.5-7,19"/>
			<path class="st1" d="M95.9,64.2c0,0-29.2,43.1-44.5,78"/>
		</g>
		<g>
			<path class="st2" d="M17.8,183.6c11.3-6.8,22.4-14.1,33.2-21.5c10.8-7.5,21.5-15.2,31.9-23.3c10.4-8,20.6-16.4,30.5-25
				c10-8.6,19.5-17.7,29.2-26.7c-8.5,10.2-17.4,20-27.1,29.1c-4.7,4.7-9.8,8.9-14.7,13.4c-2.5,2.2-5.1,4.2-7.7,6.3l-3.9,3.2l-3.9,3
				c-2.7,2-5.3,4-7.9,6l-8.1,5.8c-5.5,3.7-11,7.5-16.6,10.9C41.5,171.7,30,178.2,17.8,183.6z"/>
		</g>
	</g>
	<rect x="-4" y="-83.6" class="st3" width="1129.6" height="781.9"/>
</g>
</svg>
